Coordinates
version=1
nRows=21
nColumns=12
inDegrees=yes

Units are S.I. units (second, meters, Newtons, ...)
Angles are in degrees

endheader
time	SC_y	SC_z	SC_x	AC_y	AC_z	AC_x	GH_y	GH_z	GH_yy	EL_x	PS_y
       0.0              -54.73          33.21           84.6          37.11         -18.47          13.41          3.067          87.06          20.26          75.65          104.9
   0.01705              -54.73           33.2           84.6          37.11         -18.47          13.41          3.061          87.05          20.27          75.66          104.9
    0.0341              -54.73           33.2          84.59          37.12         -18.47          13.41          3.056          87.04          20.28          75.67          104.9
   0.05115              -54.72          33.19          84.58          37.12         -18.46           13.4           3.05          87.03          20.28          75.67          104.9
    0.0682              -54.72          33.18          84.58          37.13         -18.46           13.4          3.043          87.02          20.29          75.68          104.9
   0.08525              -54.71          33.18          84.57          37.13         -18.46          13.39          3.036          87.01           20.3          75.69          104.9
    0.1023              -54.71          33.17          84.56          37.14         -18.45          13.38          3.029           87.0          20.31           75.7          104.9
    0.1193               -54.7          33.16          84.56          37.15         -18.45          13.38          3.021          86.98          20.31           75.7          104.8
    0.1364               -54.7          33.15          84.55          37.15         -18.45          13.37          3.013          86.97          20.32          75.71          104.8
    0.1534              -54.69          33.15          84.54          37.16         -18.44          13.36          3.004          86.95          20.33          75.72          104.8
    0.1705              -54.69          33.14          84.53          37.17         -18.44          13.36          2.994          86.94          20.34          75.73          104.8
    0.1875              -54.68          33.13          84.52          37.18         -18.44          13.35          2.984          86.92          20.36          75.75          104.8
    0.2046              -54.67          33.12          84.51          37.19         -18.43          13.34          2.973           86.9          20.37          75.76          104.8
    0.2216              -54.66           33.1           84.5           37.2         -18.43          13.33           2.96          86.88          20.38          75.77          104.7
    0.2387              -54.65          33.09          84.48          37.21         -18.42          13.32          2.947          86.85           20.4          75.79          104.7
    0.2557              -54.65          33.08          84.47          37.22         -18.42          13.31          2.933          86.83          20.41           75.8          104.7
    0.2728              -54.64          33.06          84.45          37.23         -18.41           13.3          2.918           86.8          20.43          75.82          104.7
    0.2898              -54.62          33.05          84.44          37.24          -18.4          13.28          2.901          86.77          20.45          75.84          104.6
    0.3069              -54.61          33.03          84.42          37.26          -18.4          13.27          2.883          86.74          20.47          75.86          104.6
    0.3239               -54.6          33.01           84.4          37.28         -18.39          13.25          2.862          86.71          20.49          75.88          104.6
     0.341              -54.59          32.99          84.38          37.29         -18.38          13.23           2.84          86.67          20.51          75.91          104.5
